<?xml version="1.0" encoding="utf-8"?>
<!-- Generator: Adobe Illustrator 21.0.0, SVG Export Plug-In . SVG Version: 6.00 Build 0)  -->
<svg version="1.1" id="Layer_1" xmlns="http://www.w3.org/2000/svg" xmlns:xlink="http://www.w3.org/1999/xlink" x="0px" y="0px"
	 viewBox="0 0 96 96" style="enable-background:new 0 0 96 96;" xml:space="preserve">
<style type="text/css">
	.st0{fill:#03A9F4;}
	.st1{fill:#FFFFFF;}
</style>
<path class="st0" d="M88.4,80H7.6c-4.1,0-7.4-3.1-7.4-7.2V21.3c0-4.1,3.3-7.3,7.4-7.3h80.9c4.1,0,7.4,3.3,7.4,7.3v51.5
	C95.8,76.9,92.5,80,88.4,80z"/>
<path class="st1" d="M77.2,46.5c0.2-2.5,0.8-3.7,2.1-3.7c1.2,0,1.9,1.2,2,3.7H77.2z M86.6,48c0-2.8-0.6-5-1.8-6.6
	c-1.2-1.6-3.1-2.4-5.4-2.4c-4.8,0-7.7,3.5-7.7,9.2c0,3.1,0.8,5.5,2.4,7c1.4,1.4,3.4,2,6,2c2.4,0,4.6-0.6,6-1.5l-0.6-3.8
	c-1.4,0.8-3,1.2-4.8,1.2c-1.1,0-1.8-0.2-2.4-0.7c-0.6-0.5-0.9-1.3-1-2.4h9.3C86.6,49.7,86.6,48.4,86.6,48z M64.1,51.6
	c-0.5,0.9-1.2,1.3-2,1.3c-0.5,0-1.1-0.1-1.5-0.3v-8.5c1-1,1.9-1.1,2.1-1.1c1.4,0,2.1,1.5,2.1,4.6C64.8,49.4,64.5,50.7,64.1,51.6z
	 M68.7,40.6c-1-1.3-2.4-1.9-4.2-1.9c-1.6,0-3.1,0.7-4.4,2.1l-0.3-1.8h-5v25l5.6-0.9l0-6.4c0.9,0.3,1.8,0.4,2.6,0.4
	c1.4,0,3.5-0.4,5.1-2.1c1.5-1.7,2.3-4.2,2.3-7.6C70.4,44.4,69.9,42.1,68.7,40.6z M46.9,39.1h5.6v18.2h-5.6V39.1z M49.8,37.3
	c1.6,0,3-1.4,3-3c0-1.7-1.3-3-3-3c-1.7,0-3,1.3-3,3C46.8,35.9,48.1,37.3,49.8,37.3z M44.5,38.8c-1.6,0-2.9,0.8-3.4,2.3l-0.3-2.1
	h-4.9v18.2h5.6V45.3c0.7-0.9,1.7-1.2,3.1-1.2c0.3,0,0.6,0,1,0.1v-5.2C45.2,38.9,44.8,38.8,44.5,38.8z M33.6,43.3l0.7-4.2h-3.6v-5.1
	l-4.8,0.8l-0.7,4.3l-1.7,0.3l-0.6,3.9h2.3v8.2c0,2.1,0.5,3.6,1.6,4.5c1,0.8,2.3,1.1,4.2,1.1c1.5,0,2.4-0.3,3-0.4v-4.5
	c-0.3,0.1-1.1,0.3-1.6,0.3c-1.1,0-1.6-0.6-1.6-1.9v-7.4L33.6,43.3C33.6,43.2,33.6,43.3,33.6,43.3z M17.3,46
	c-1.6-0.6-2.5-1.1-2.5-1.8c0-0.6,0.5-1,1.5-1c1.7,0,3.4,0.6,4.6,1.2l0.7-4.2c-1-0.5-2.9-1.2-5.6-1.2c-1.9,0-3.5,0.5-4.6,1.4
	c-1.2,1-1.8,2.4-1.8,4.1c0,3.1,1.9,4.4,4.9,5.5c2,0.7,2.6,1.2,2.6,2c0,0.7-0.6,1.2-1.8,1.2c-1.4,0-3.7-0.7-5.3-1.6l-0.6,4.2
	c1.3,0.7,3.7,1.5,6.3,1.5c2,0,3.7-0.5,4.8-1.4c1.3-1,1.9-2.5,1.9-4.3C22.4,48.4,20.4,47.1,17.3,46L17.3,46z"/>
</svg>
